<?xml version="1.0" standalone="no"?><svg xmlns="http://www.w3.org/2000/svg" viewBox="0 0 1440 320"><path fill="#0099ff" fill-opacity="1" d="M0,96L17.1,128C34.3,160,69,224,103,245.3C137.1,267,171,245,206,240C240,235,274,245,309,218.7C342.9,192,377,128,411,112C445.7,96,480,128,514,133.3C548.6,139,583,117,617,90.7C651.4,64,686,32,720,26.7C754.3,21,789,43,823,48C857.1,53,891,43,926,80C960,117,994,203,1029,208C1062.9,213,1097,139,1131,96C1165.7,53,1200,43,1234,48C1268.6,53,1303,75,1337,74.7C1371.4,75,1406,53,1423,42.7L1440,32L1440,320L1422.9,320C1405.7,320,1371,320,1337,320C1302.9,320,1269,320,1234,320C1200,320,1166,320,1131,320C1097.1,320,1063,320,1029,320C994.3,320,960,320,926,320C891.4,320,857,320,823,320C788.6,320,754,320,720,320C685.7,320,651,320,617,320C582.9,320,549,320,514,320C480,320,446,320,411,320C377.1,320,343,320,309,320C274.3,320,240,320,206,320C171.4,320,137,320,103,320C68.6,320,34,320,17,320L0,320Z"></path></svg>